<svg width="49" height="48" viewBox="0 0 49 48" fill="none" xmlns="http://www.w3.org/2000/svg">
<g clip-path="url(#clip0_211_820)">
<path fill-rule="evenodd" clip-rule="evenodd" d="M14.7858 13.9613L4.80005 23.8467C6.79739 25.824 9.07904 27.4904 11.5667 28.7941C12.2543 30.5997 13.3321 32.293 14.8 33.7462C20.3229 39.2135 29.2772 39.2135 34.8 33.7462C36.268 32.293 37.3458 30.5997 38.0334 28.794C40.521 27.4904 42.8027 25.824 44.8 23.8467L34.8223 13.9693C34.8149 13.9619 34.8075 13.9546 34.8 13.9472C29.2772 8.47985 20.3229 8.47985 14.8 13.9472C14.7953 13.9519 14.7906 13.9566 14.7858 13.9613ZM33.8445 30.5776C30.9345 31.5498 27.8797 32.0477 24.8 32.0477C21.7203 32.0477 18.6656 31.5498 15.7556 30.5776C16.0709 30.9917 16.419 31.3891 16.8 31.7663C21.2183 36.1402 28.3817 36.1402 32.8 31.7663C33.181 31.3891 33.5292 30.9917 33.8445 30.5776ZM17.0051 15.7291C17.7554 16.2198 18.5532 16.6397 19.388 16.982C21.1038 17.6856 22.9428 18.0477 24.8 18.0477C26.6572 18.0477 28.4963 17.6856 30.212 16.982C31.0469 16.6397 31.8446 16.2198 32.595 15.7291C28.2318 11.6192 21.3682 11.6192 17.0051 15.7291Z" fill="#3B4158"/>
</g>
<defs>
<clipPath id="clip0_211_820">
<rect width="40" height="28" fill="white" transform="translate(4.80005 9.84668)"/>
</clipPath>
</defs>
</svg>
