<svg width="49" height="48" viewBox="0 0 49 48" fill="none" xmlns="http://www.w3.org/2000/svg">
<g clip-path="url(#clip0_211_843)">
<path d="M42.6375 11.6904C42.6375 12.1564 43.0198 12.5342 43.4916 12.5342H44.3458C44.8176 12.5342 45.2 12.1564 45.2 11.6904C45.2 11.2244 44.8176 10.8467 44.3458 10.8467H43.4916C43.0198 10.8467 42.6375 11.2244 42.6375 11.6904Z" fill="#212326"/>
<path d="M17.8666 37.8467H22.016L20.808 36.6534C20.4877 36.337 20.0531 36.1592 19.6001 36.1592H17.8666C11.2622 36.1592 5.90828 30.8706 5.90828 24.3467C5.90828 17.8228 11.2622 12.5342 17.8666 12.5342H31.5333C38.1377 12.5342 43.4916 17.8228 43.4916 24.3467C43.4916 30.8706 38.1377 36.1592 31.5333 36.1592H26.4209C25.7412 36.1592 25.0895 35.8925 24.6089 35.4178L23.1937 34.0198C22.3927 33.2287 21.3064 32.7842 20.1737 32.7842H17.8666C13.1492 32.7842 9.32495 29.0066 9.32495 24.3467C9.32495 19.6867 13.1492 15.9092 17.8666 15.9092H31.5333C36.2507 15.9092 40.075 19.6867 40.075 24.3467C40.075 29.0066 36.2507 32.7842 31.5333 32.7842H28.2506C27.571 32.7842 26.9192 32.5175 26.4386 32.0428L25.0234 30.6448C24.2224 29.8537 23.1361 29.4092 22.0035 29.4092H17.8666C15.0362 29.4092 12.7416 27.1426 12.7416 24.3467C12.7416 21.5508 15.0362 19.2842 17.8666 19.2842H31.5333C34.3637 19.2842 36.6583 21.5508 36.6583 24.3467C36.6583 27.1085 34.4193 29.3538 31.6366 29.4082L31.6361 29.4092H30.386C29.7064 29.4092 29.0546 29.1425 28.574 28.6678L27.1588 27.2698C26.5016 26.6206 25.6523 26.2049 24.7429 26.0766L24.7 26.0342H17.8666C16.9231 26.0342 16.1583 25.2787 16.1583 24.3467C16.1583 23.4147 16.9231 22.6592 17.8666 22.6592H31.5333C32.4768 22.6592 33.2416 23.4147 33.2416 24.3467C33.2416 25.2787 32.4768 26.0342 31.5333 26.0342H28.1166L29.3246 27.2274C29.645 27.5439 30.0795 27.7217 30.5325 27.7217H31.5333C33.4202 27.7217 34.95 26.2106 34.95 24.3467C34.95 22.4827 33.4202 20.9717 31.5333 20.9717H17.8666C15.9797 20.9717 14.45 22.4827 14.45 24.3467C14.45 26.2106 15.9797 27.7217 17.8666 27.7217H24.1389C24.8185 27.7217 25.4703 27.9884 25.9509 28.463L27.3661 29.861C28.167 30.6522 29.2533 31.0967 30.386 31.0967H31.9604V31.0837C35.5354 30.866 38.3666 27.9329 38.3666 24.3467C38.3666 20.6188 35.3072 17.5967 31.5333 17.5967H17.8666C14.0927 17.5967 11.0333 20.6188 11.0333 24.3467C11.0333 28.0746 14.0927 31.0967 17.8666 31.0967H22.0035C22.6831 31.0967 23.3349 31.3634 23.8154 31.838L25.2307 33.236C26.0316 34.0272 27.1179 34.4717 28.2506 34.4717H31.5333C37.1942 34.4717 41.7833 29.9386 41.7833 24.3467C41.7833 18.7548 37.1942 14.2217 31.5333 14.2217H17.8666C12.2057 14.2217 7.61662 18.7548 7.61662 24.3467C7.61662 29.9386 12.2057 34.4717 17.8666 34.4717H20.1737C20.8533 34.4717 21.5051 34.7384 21.9857 35.213L23.4009 36.611C24.2019 37.4022 25.2882 37.8467 26.4209 37.8467H31.5333C39.0812 37.8467 45.2 31.8025 45.2 24.3467C45.2 16.8908 39.0812 10.8467 31.5333 10.8467L17.8666 10.8467C10.3187 10.8467 4.19995 16.8908 4.19995 24.3467C4.19995 31.8025 10.3187 37.8467 17.8666 37.8467Z" fill="#212326"/>
</g>
<defs>
<clipPath id="clip0_211_843">
<rect width="41" height="27" fill="white" transform="translate(4.19995 10.8467)"/>
</clipPath>
</defs>
</svg>
