<svg width="49" height="48" viewBox="0 0 49 48" fill="none" xmlns="http://www.w3.org/2000/svg">
<g clip-path="url(#clip0_211_827)">
<path d="M45.3964 13.4113C45.3964 13.4451 45.3964 13.4873 45.3876 13.5127C45.3436 13.8424 45.3436 14.1721 45.37 14.5102C45.3876 14.5947 45.4052 14.6793 45.4757 14.7469C45.5902 14.8737 45.7663 14.8484 45.8368 14.6962C45.8721 14.6201 45.8721 14.544 45.8544 14.4679C45.7663 14.1467 45.7487 13.8086 45.7399 13.4789C45.7399 13.462 45.7399 13.4366 45.7399 13.4113C45.8368 13.4028 45.9249 13.3944 46.0041 13.3944C46.0658 13.3859 46.1187 13.3774 46.1627 13.3521C46.2948 13.2845 46.2948 13.1408 46.1539 13.0731C46.101 13.0478 46.0306 13.0393 45.9689 13.0393C45.7487 13.0478 45.5286 13.0478 45.3083 13.0478C45.2291 13.0478 45.1498 13.0562 45.0705 13.0647C45.0265 13.0731 44.9736 13.0731 44.9384 13.0985C44.8767 13.1238 44.8416 13.1661 44.8416 13.2253C44.8503 13.2845 44.8767 13.3183 44.9384 13.3436C44.9736 13.369 45.0177 13.3774 45.0617 13.3774C45.1674 13.3859 45.2819 13.4028 45.3964 13.4113ZM47.8185 13.8001C47.8185 13.8086 47.8273 13.817 47.8273 13.817C47.8626 14.0453 47.8978 14.2651 47.9242 14.4849C47.9331 14.5609 47.9419 14.6286 47.9947 14.6877C48.1092 14.8314 48.2854 14.8145 48.3646 14.6624C48.3999 14.5863 48.4087 14.5102 48.3911 14.4257C48.3382 14.1721 48.3118 13.9185 48.2589 13.6733C48.2237 13.5212 48.1797 13.3774 48.1356 13.2422C48.1092 13.1577 48.0476 13.0985 47.9419 13.09C47.8362 13.0731 47.7569 13.1238 47.7128 13.1999C47.66 13.2675 47.616 13.3352 47.5807 13.4113C47.5191 13.5465 47.4662 13.6818 47.3958 13.8086C47.3869 13.8424 47.3781 13.8678 47.3606 13.8931C47.3518 13.8762 47.343 13.8678 47.343 13.8678C47.2284 13.6564 47.1227 13.4451 47.0083 13.2422C46.9906 13.2253 46.9818 13.2084 46.973 13.1915C46.9202 13.1154 46.8585 13.0731 46.7616 13.0731C46.6735 13.0816 46.603 13.1323 46.5591 13.2084C46.5414 13.2422 46.5414 13.2675 46.5326 13.3014C46.4974 13.5719 46.4533 13.8424 46.4181 14.1129C46.4005 14.2651 46.3917 14.4172 46.3917 14.5694C46.3829 14.6032 46.3917 14.6455 46.4093 14.6793C46.4269 14.7469 46.4798 14.7892 46.5502 14.7976C46.6383 14.8061 46.6999 14.7807 46.7264 14.7131C46.7528 14.6624 46.7616 14.6201 46.7704 14.5778C46.8057 14.4257 46.8321 14.282 46.8585 14.1383C46.8761 14.0537 46.8849 13.9861 46.9114 13.8931C46.929 13.9269 46.9465 13.9523 46.9642 13.9776C47.0434 14.0791 47.1227 14.1805 47.2196 14.2651C47.3165 14.3327 47.3958 14.3242 47.475 14.2482C47.4927 14.2312 47.5015 14.2228 47.5191 14.2059C47.5984 14.0875 47.6953 13.9692 47.7745 13.8508C47.7921 13.8339 47.8009 13.817 47.8185 13.8001Z" fill="#3A3B7B"/>
<path d="M27.5243 13.5774C27.4631 13.738 27.4514 13.8538 27.4797 13.95C27.5109 14.0808 27.5919 14.1236 27.7019 14.0903C28.7365 13.8448 31.005 14.5417 31.8449 14.736C32.043 14.7767 32.2041 14.5313 32.069 14.3113C31.8717 14.0982 29.6042 13.1859 28.739 13.1362C28.3998 13.1178 27.7935 13.0343 27.5243 13.5774Z" fill="#3A3B7B"/>
<path d="M36.3903 10.6244C36.5005 10.6854 36.5621 10.7437 36.5926 10.8088C36.6379 10.8942 36.614 10.9533 36.5378 10.9834C35.854 11.3037 34.944 12.6828 34.5767 13.1585C34.4876 13.2679 34.2822 13.2043 34.2512 13.0244C34.2576 12.8209 35.0643 11.3243 35.5144 10.9167C35.6914 10.7575 35.9836 10.4453 36.3903 10.6244Z" fill="#3A3B7B"/>
<path d="M30.9444 9.94541C31.0768 9.84959 31.2145 9.81602 31.2848 9.87828C32.3166 10.7252 32.8637 12.0663 33.2025 13.2941C33.2153 13.3227 33.2161 13.3638 33.2059 13.4066C33.2016 13.4432 33.1738 13.4818 33.1295 13.5118C33.0823 13.5448 33.0416 13.5548 33.0224 13.5264C32.5702 12.936 29.9874 10.6392 30.9444 9.94541Z" fill="#3A3B7B"/>
<path d="M9.09515 24.6285C9.34243 24.4518 9.61127 24.3047 9.89576 24.1905C10.1934 24.1089 10.5107 24.1224 10.7996 24.2291C11.0884 24.3359 11.3333 24.53 11.497 24.7822C11.6434 25.0337 11.7007 25.3241 11.6603 25.6096C11.6199 25.8951 11.4839 26.1602 11.2728 26.3651C11.1092 26.5312 10.9234 26.6759 10.7204 26.7954C9.81572 27.3564 8.90298 27.8866 7.99029 28.4475C7.80353 28.5879 7.60541 28.7139 7.39783 28.8241C7.08208 28.9752 6.72122 29.0157 6.37766 28.9385C6.0341 28.8614 5.72945 28.6713 5.51638 28.4014C5.35709 28.2103 5.22267 28.0013 5.11607 27.779C4.2514 26.0347 3.35471 24.2981 2.52207 22.523C2.13777 21.7546 1.82553 20.8709 1.5213 20.018C1.38967 19.7702 1.36397 19.4829 1.44966 19.2171C1.53535 18.9514 1.72568 18.7282 1.98015 18.5951C2.23463 18.462 2.53317 18.4294 2.8123 18.5043C3.09143 18.5791 3.32911 18.7556 3.4748 18.996C3.92261 19.5672 4.31901 20.1739 4.65972 20.8095C5.52438 22.3463 6.34902 23.8831 7.18166 25.3738C7.23014 25.4562 7.2836 25.5357 7.34178 25.612C7.96849 25.3591 8.55794 25.0285 9.09515 24.6285Z" fill="#3A3B7B"/>
<path d="M18.0354 24.0924C16.0579 26.313 12.7433 25.7521 11.078 22.8936C9.8931 20.865 9.68496 17.5147 12.263 15.4016C12.8135 14.9592 13.4717 14.6578 14.1764 14.5256C15.0404 14.4067 15.9215 14.553 16.6936 14.9435C17.4657 15.3341 18.0895 15.9489 18.4758 16.7002C19.8848 19.1591 19.6847 22.2942 18.0354 24.0924ZM17.2348 18.9132C17.0247 18.309 16.6032 17.7931 16.0418 17.4532C15.7242 17.2359 15.3382 17.1302 14.9489 17.154C14.5595 17.1778 14.1906 17.3296 13.9042 17.5838C12.7594 18.5597 12.5191 20.8727 13.3518 22.2481C13.4579 22.4724 13.6138 22.6717 13.8085 22.8322C14.0033 22.9926 14.2323 23.1102 14.4794 23.1768C14.7264 23.2434 14.9857 23.2574 15.239 23.2178C15.4923 23.1781 15.7335 23.0859 15.9458 22.9474C16.5664 22.4856 17.0217 21.8497 17.2484 21.1281C17.4751 20.4065 17.462 19.635 17.2108 18.9209L17.2348 18.9132Z" fill="#3A3B7B"/>
<path d="M26.1054 19.8815C25.903 19.9233 25.6939 19.9258 25.4903 19.8888C25.2869 19.8518 25.0931 19.7762 24.9206 19.6663C24.7696 19.5834 24.6396 19.4695 24.5399 19.3326C24.4404 19.1957 24.3736 19.0394 24.3446 18.8747C24.3154 18.7101 24.3247 18.5414 24.3717 18.3807C24.4187 18.2199 24.5023 18.0712 24.6163 17.9451C24.8151 17.6917 25.0972 17.5103 25.417 17.4303C26.2517 17.1977 27.1111 17.056 27.9789 17.0076C28.1696 16.9864 28.3628 17.0018 28.5471 17.0532C28.7315 17.1046 28.9032 17.1907 29.0524 17.3067C29.2015 17.4227 29.3251 17.5661 29.4157 17.7285C29.5063 17.8909 29.5622 18.069 29.5801 18.2525C29.8303 19.1534 29.8577 20.0981 29.6602 21.0111C28.9397 23.9618 26.4577 24.9761 23.6716 24.0309C22.8895 23.7782 22.2038 23.3074 21.7021 22.6785C21.0329 21.9212 20.5585 21.0237 20.317 20.0582C20.1213 19.1985 20.1427 18.3063 20.3796 17.4562C20.6163 16.606 21.0615 15.8225 21.678 15.1711C22.2631 14.4631 23.0225 13.906 23.8878 13.5498C24.4345 13.2605 25.0743 13.1783 25.6812 13.3192C25.8188 13.3558 25.9438 13.4271 26.0431 13.5256C26.1424 13.6241 26.2124 13.7464 26.2459 13.8797C26.2794 14.0129 26.2751 14.1524 26.2335 14.2835C26.1919 14.4147 26.1146 14.5328 26.0094 14.6255C25.8095 14.7992 25.5923 14.9537 25.3609 15.0866C24.6491 15.5216 24.0297 16.0822 23.5355 16.7387C23.2115 17.1635 22.9884 17.6512 22.8819 18.1676C22.7754 18.684 22.788 19.2166 22.919 19.7278C23.1006 20.4249 23.5035 21.0506 24.0719 21.5182C25.8332 23.0551 28.123 21.572 27.7227 19.4742C27.1383 19.6126 26.6259 19.7586 26.1054 19.8815Z" fill="#3A3B7B"/>
<path d="M36.8658 24.2153C34.2638 25.7522 31.3015 24.2153 30.653 20.988C30.1806 18.6828 31.0773 15.4554 34.2158 14.226C34.8835 13.97 35.6078 13.8801 36.3214 13.9647C37.1787 14.1153 37.9653 14.5204 38.5699 15.1229C39.1746 15.7253 39.5671 16.4947 39.692 17.3227C40.2204 20.0659 39.0195 22.9936 36.8658 24.2153ZM37.7705 19.0439C37.7697 18.4056 37.5345 17.7879 37.106 17.2996C36.877 16.9976 36.5459 16.7812 36.1693 16.6873C35.7925 16.5935 35.3936 16.6279 35.0404 16.7848C33.6313 17.3688 32.6385 19.4896 32.9988 21.0495C33.0264 21.2943 33.1092 21.5304 33.2417 21.7412C33.3742 21.9521 33.553 22.1326 33.7658 22.2702C33.9785 22.4078 34.22 22.4991 34.4734 22.5378C34.7268 22.5764 34.9859 22.5615 35.2325 22.4941C35.9774 22.2444 36.6223 21.7777 37.0772 21.1591C37.5323 20.5406 37.7746 19.8011 37.7705 19.0439Z" fill="#3A3B7B"/>
<path d="M42.3233 24.8609C42.284 25.1421 42.13 25.3969 41.895 25.5691C41.66 25.7413 41.3634 25.8169 41.0704 25.7792C40.7774 25.7415 40.5119 25.5936 40.3325 25.368C40.1531 25.1425 40.0744 24.8578 40.1136 24.5766C40.1529 24.2953 40.307 24.0406 40.542 23.8684C40.777 23.6962 41.0736 23.6206 41.3666 23.6583C41.6596 23.696 41.925 23.8439 42.1045 24.0694C42.2839 24.295 42.3627 24.5797 42.3233 24.8609ZM41.6268 14.495C41.7791 14.2718 42.0024 14.1018 42.2636 14.0104C42.5247 13.919 42.8097 13.9111 43.0759 13.9878C43.3466 14.0528 43.5857 14.2051 43.7533 14.4191C43.9209 14.6331 44.0068 14.8959 43.9967 15.1635C43.9613 15.5927 43.8945 16.0189 43.7965 16.4391C43.5323 17.8606 43.2761 19.2822 42.9959 20.6884C42.8678 21.2494 42.6997 21.7872 42.5155 22.3558C42.4514 22.5336 42.3444 22.6942 42.2033 22.8246C42.1155 22.9227 42.0035 22.9979 41.8774 23.0433C41.7513 23.0888 41.6153 23.1029 41.482 23.0845C41.3487 23.0661 41.2224 23.0158 41.1147 22.9381C41.0071 22.8604 40.9216 22.758 40.8663 22.6402C40.771 22.4289 40.7193 22.2018 40.7141 21.9717C40.7141 21.0188 40.7141 20.0583 40.7782 19.0978C40.887 17.727 41.1011 16.3657 41.4186 15.0252C41.456 14.8456 41.5265 14.6738 41.6268 14.518V14.495Z" fill="#3A3B7B"/>
<path fill-rule="evenodd" clip-rule="evenodd" d="M5.71254 31.0356C5.618 31.2382 5.59208 31.464 5.63828 31.6813C5.66901 31.9677 5.73651 32.2495 5.83923 32.5201C5.96749 32.8515 6.11101 33.1792 6.28797 33.5831C6.32867 33.676 6.37119 33.773 6.4157 33.8751C6.65433 34.4223 6.95377 35.1216 7.35316 36.1336C7.46621 36.4211 7.5666 36.711 7.66769 37.0028C7.70852 37.1207 7.74951 37.2391 7.79146 37.3576C7.94183 37.7792 8.20057 38.1579 8.54354 38.458C8.68917 38.623 8.88234 38.7432 9.09895 38.8033C9.31978 38.8646 9.55464 38.8607 9.77313 38.7922C9.99161 38.7236 10.1835 38.5935 10.3239 38.4188C10.4615 38.2475 10.5434 38.041 10.5593 37.8254C10.6486 37.4053 10.6181 36.9697 10.4709 36.5647C10.2374 35.8922 9.97127 35.2187 9.66442 34.56L9.66301 34.5571C9.15823 33.5266 8.64513 32.5032 8.10774 31.4793L8.10372 31.4721C7.94641 31.2054 7.74196 30.9669 7.49958 30.7675C7.34222 30.5895 7.12517 30.4694 6.88547 30.428C6.64066 30.3858 6.38817 30.4283 6.17309 30.5482C5.96962 30.6597 5.80833 30.8304 5.71254 31.0356Z" fill="#3A3B7B"/>
<path fill-rule="evenodd" clip-rule="evenodd" d="M13.4223 28.498C12.6308 28.3013 11.8042 28.2726 11.0001 28.414C10.3773 28.4729 9.76473 28.6108 9.33938 28.8839C9.12304 29.0229 8.94813 29.2014 8.85084 29.4282C8.75302 29.6564 8.74053 29.9172 8.8207 30.2079C8.96707 30.7403 9.15715 31.2579 9.34656 31.7739L9.37724 31.8575L9.37798 31.8594C9.94829 33.3584 10.524 34.8524 11.105 36.3412C11.1728 36.5758 11.2686 36.8022 11.3905 37.0156L11.3928 37.0196C11.5539 37.2848 11.7605 37.522 12.0039 37.7213C12.1256 37.8308 12.2761 37.9066 12.4394 37.9405C12.6042 37.9746 12.7756 37.9647 12.9349 37.9117C13.0943 37.8588 13.2355 37.7649 13.343 37.6402C13.4489 37.5175 13.5181 37.3698 13.5436 37.2125C13.6486 36.7853 13.615 36.3374 13.4471 35.9291C13.3947 35.7916 13.3536 35.6512 13.3103 35.5033C13.2959 35.454 13.2813 35.4039 13.2658 35.3528C14.5957 34.8539 16.0108 34.183 16.5084 32.6223C16.7032 32.0829 16.7194 31.4989 16.5548 30.9503C16.39 30.4011 16.052 29.9143 15.5872 29.5569C14.9547 29.0566 14.2158 28.6952 13.4223 28.498ZM11.2284 30.4123C11.2546 30.4051 11.2809 30.3984 11.3074 30.3921C12.1732 30.2615 13.059 30.4355 13.8018 30.8821C14.1291 31.1006 14.2632 31.3434 14.2862 31.5769C14.31 31.8174 14.2188 32.0781 14.0358 32.3286C13.69 32.8018 13.0588 33.1806 12.4887 33.2512C12.0731 32.3325 11.651 31.3767 11.2284 30.4123Z" fill="#3A3B7B"/>
<path d="M18.699 26.8165C19.6416 26.3988 20.8091 26.3266 21.7227 26.6203C21.9528 26.6847 22.1524 26.8238 22.2875 27.0139C22.4216 27.2029 22.4835 27.4306 22.4628 27.6583C22.4615 27.806 22.4237 27.9514 22.3526 28.0826C22.2802 28.2161 22.1754 28.3309 22.047 28.4174C21.9186 28.5038 21.7705 28.5594 21.615 28.5792C21.4595 28.5991 21.3014 28.5828 21.1539 28.5316L21.1427 28.5277L21.1321 28.5223C21.0567 28.4844 20.9765 28.4559 20.8936 28.4373L20.8883 28.4362C20.2456 28.2724 19.6394 28.5438 19.418 28.8774C19.3124 29.0364 19.2993 29.197 19.3872 29.343C19.4814 29.4994 19.7125 29.675 20.18 29.8001C20.3086 29.8339 20.4404 29.8666 20.574 29.8998C20.9437 29.9917 21.3279 30.0872 21.6994 30.2194L21.7008 30.22C23.4147 30.8458 24.0529 32.1421 23.8344 33.3613C23.6183 34.5669 22.5692 35.6642 20.9915 35.923C20.4175 36.0451 19.82 36.0213 19.2584 35.854C18.6953 35.6861 18.1878 35.3799 17.7862 34.9654L17.7757 34.9546C17.649 34.7985 17.5637 34.615 17.5259 34.4204C17.4911 34.2448 17.5094 34.0633 17.5786 33.8972C17.6473 33.7322 17.7636 33.5894 17.9137 33.4853C18.0722 33.3673 18.2633 33.2965 18.4633 33.2818C18.6627 33.2671 18.8622 33.3087 19.0372 33.4013C19.212 33.4824 19.3747 33.5858 19.5206 33.7088L19.5234 33.711C19.7816 33.9377 20.094 33.9968 20.3936 33.942C20.6976 33.8866 20.9834 33.7139 21.1672 33.4849C21.3499 33.2573 21.4232 32.987 21.3362 32.7245C21.2486 32.4601 20.9854 32.164 20.4069 31.9163C20.2557 31.8547 20.0989 31.805 19.9358 31.7566C19.8919 31.7436 19.8471 31.7306 19.8019 31.7174C19.6813 31.6823 19.5572 31.6461 19.4356 31.6062C19.3518 31.5788 19.2686 31.5528 19.1863 31.5271C18.9613 31.4567 18.742 31.3882 18.5309 31.2963C18.0714 31.1461 17.6745 30.8578 17.3991 30.474C17.1226 30.0887 16.9835 29.628 17.0024 29.1605C17.0039 28.0214 17.7514 27.2367 18.699 26.8165Z" fill="#3A3B7B"/>
<path d="M30.6485 26.695C30.4658 26.6094 30.2637 26.5687 30.0605 26.5767C29.8573 26.5847 29.6593 26.6411 29.4845 26.741C29.3108 26.8401 29.1654 26.9789 29.0612 27.1451C28.9657 27.285 28.8995 27.4415 28.8666 27.6058C28.8336 27.7699 28.8344 27.9387 28.8688 28.1025C28.9029 28.313 28.9406 28.5177 28.9779 28.7196C29.0396 29.0537 29.0996 29.3802 29.1392 29.7132L29.1407 29.7217C29.2309 30.2438 29.2781 30.772 29.2823 31.3012L29.2827 31.3087C29.3135 31.8803 29.1106 32.4407 28.7175 32.8711L28.7113 32.8788C28.5834 33.0361 28.4123 33.1562 28.2173 33.2256C28.0223 33.295 27.8111 33.3109 27.6072 33.2716C27.4033 33.2324 27.2148 33.1394 27.0628 33.0032C26.9108 32.867 26.8011 32.6923 26.7464 32.4998C26.6296 32.094 26.562 31.6766 26.5448 31.2559L26.7443 28.2068C26.7473 28.167 26.7506 28.1261 26.754 28.0849C26.7616 27.9923 26.7694 27.8979 26.7726 27.81C26.7773 27.6805 26.7733 27.5474 26.7419 27.4214C26.7097 27.2926 26.6486 27.17 26.5401 27.0657C26.4326 26.9624 26.2876 26.8862 26.1051 26.8344C25.7751 26.7427 25.4961 26.7456 25.2635 26.8403C25.0309 26.935 24.8715 27.1109 24.7587 27.314C24.6468 27.5154 24.5749 27.7539 24.5205 27.9927C24.4801 28.17 24.4477 28.356 24.4169 28.5331C24.4062 28.5941 24.3958 28.6541 24.3852 28.7123L24.385 28.714C24.2201 29.6852 24.171 30.6713 24.2387 31.6532C24.2513 32.1839 24.3666 32.7077 24.5788 33.1978C24.8181 33.8303 25.2517 34.3783 25.8222 34.7694C26.3939 35.1614 27.0761 35.3774 27.7786 35.3888C28.481 35.4002 29.1705 35.2065 29.7557 34.8334C30.34 34.4608 30.7928 33.9268 31.0543 33.302C31.42 32.5062 31.5918 31.6407 31.5563 30.7715C31.5348 30.1369 31.4988 29.4974 31.463 28.8612C31.4455 28.5491 31.4279 28.2377 31.4122 27.9282C31.4043 27.6178 31.2977 27.3172 31.1066 27.0667C30.9883 26.9083 30.831 26.7806 30.6485 26.695Z" fill="#3A3B7B"/>
<path d="M37.1174 31.4763C37.0989 31.4989 37.0793 31.5223 37.0589 31.5466C36.9103 30.7235 36.7725 29.9007 36.6345 29.0766C36.585 28.781 36.5353 28.4841 36.4852 28.188L36.4796 28.155L36.4613 28.1264C36.4269 28.0727 36.4235 28.0201 36.4235 27.9077V27.8948L36.4214 27.8819C36.3841 27.65 36.2748 27.4341 36.1078 27.2626C35.9413 27.0916 35.725 26.9726 35.4871 26.9209C35.2496 26.8647 35 26.8771 34.7698 26.9565C34.5402 27.0358 34.34 27.1783 34.1943 27.3662C34.0732 27.5103 33.9739 27.6702 33.8995 27.841C33.7306 28.2091 33.5603 28.578 33.3895 28.948L33.3865 28.9544C32.9601 29.878 32.5308 30.8077 32.114 31.7448L32.1127 31.7479C31.8568 32.3555 31.6456 32.9957 31.4351 33.634C31.3931 33.7614 31.351 33.8887 31.3087 34.0157C31.2327 34.2172 31.1994 34.4311 31.2108 34.645C31.197 34.8364 31.2447 35.0274 31.3477 35.1921C31.4528 35.3602 31.6101 35.4924 31.7975 35.5703C31.9961 35.6538 32.2181 35.6716 32.4285 35.6207C32.6384 35.5699 32.8247 35.4536 32.9583 35.2902C33.1288 35.0888 33.2755 34.8692 33.3952 34.6365C33.7483 33.9433 34.0858 33.2416 34.4217 32.543C34.5517 32.2728 34.678 32.0308 34.8216 31.7672C34.8315 31.7997 34.8416 31.8314 34.852 31.8631C35.0026 32.4995 35.2568 33.109 35.6052 33.6694C35.6711 33.7881 35.763 33.8918 35.8744 33.9735C35.9872 34.0561 36.1174 34.1141 36.2559 34.1436C36.3945 34.1731 36.538 34.1732 36.6766 34.144C36.815 34.1149 36.9456 34.0568 37.0584 33.9745L37.2818 33.8141L39.0157 32.4124L38.9131 33.0395C38.7724 33.9015 38.6327 34.7564 38.4844 35.6114C38.3873 35.9904 38.3874 36.3862 38.4848 36.7651C38.5269 36.9783 38.6343 37.1746 38.7933 37.3289C38.9537 37.4845 39.159 37.5902 39.3827 37.6324C39.6064 37.6745 39.8382 37.6512 40.0479 37.5653C40.2546 37.4808 40.4304 37.3393 40.5532 37.1591C40.8391 36.8187 41.017 36.4065 41.0659 35.9717C41.1395 35.3577 41.2226 34.7353 41.3058 34.1131C41.4016 33.396 41.4975 32.679 41.5784 31.9758L41.5786 31.9737C41.6565 31.2039 41.6942 30.431 41.6916 29.6576C41.7086 29.4132 41.6452 29.1698 41.5101 28.9617C41.3746 28.7529 41.1738 28.5906 40.9365 28.4977C40.6897 28.39 40.4134 28.3612 40.1483 28.4156C39.8849 28.4697 39.6465 28.603 39.4676 28.796C39.1478 29.0799 38.8478 29.3836 38.5695 29.7053L38.5676 29.7075C38.2638 30.0709 37.962 30.4414 37.6623 30.8095C37.48 31.0332 37.2982 31.2565 37.1174 31.4763Z" fill="#3A3B7B"/>
</g>
<defs>
<clipPath id="clip0_211_827">
<rect width="47" height="29" fill="white" transform="translate(1.3999 9.84668)"/>
</clipPath>
</defs>
</svg>
