<svg width="56" height="48" viewBox="0 0 56 48" fill="none" xmlns="http://www.w3.org/2000/svg">
<g clip-path="url(#clip0_211_823)">
<path d="M55.5958 19.5163C55.6016 19.4746 55.6016 19.4325 55.5958 19.3908C55.6012 19.3568 55.6012 19.3222 55.5958 19.2881L55.1884 16.3555C55.1296 16.0046 54.9724 15.6767 54.7345 15.4083L54.6646 15.3285L54.5366 15.2029L47.483 9.24635L47.6809 9.44036C47.519 9.25047 47.3158 9.09859 47.0862 8.9959C46.8565 8.89321 46.6063 8.84232 46.354 8.84698H44.2123C43.864 8.84021 43.5237 8.94877 43.2462 9.15508C42.9548 8.95001 42.6039 8.84201 42.2452 8.84698H40.1035C39.8226 8.84251 39.5455 8.91085 39.3002 9.04511C39.055 9.17936 38.8502 9.37476 38.7068 9.61151C38.4855 9.94967 38.4024 10.3571 38.4739 10.7526L38.7417 12.6012C38.5643 12.5026 38.3636 12.4515 38.1597 12.4529H27.7888C27.4167 12.4552 27.0532 12.5621 26.7412 12.761C26.4396 12.9461 26.1974 13.2111 26.0429 13.5255L25.2397 12.8523C24.9236 12.5655 24.5064 12.4101 24.0758 12.4186H7.80363C7.43022 12.4253 7.0651 12.5276 6.74446 12.7153C6.30579 12.967 5.98431 13.3763 5.84819 13.8564L0.680214 30.8019C0.583652 31.0811 0.574153 31.3822 0.652934 31.6668C0.731714 31.9513 0.895206 32.2064 1.12252 32.3995C1.18176 32.4487 1.24395 32.4944 1.30876 32.5363C1.30876 32.5363 1.20399 32.4679 1.14579 32.4109L8.19941 38.3788C8.49779 38.6482 8.88791 38.7987 9.29346 38.801H25.6937C26.0682 38.7915 26.4336 38.6852 26.7529 38.4929C26.9335 38.3962 27.095 38.2687 27.2301 38.1163L27.2883 38.0365L27.3814 37.9224L27.4513 37.7968L28.2195 38.4473C28.5136 38.7059 28.8952 38.8482 29.2903 38.8467H45.7254C46.0995 38.8345 46.4642 38.7284 46.7846 38.5386C46.9611 38.4359 47.1218 38.3091 47.2619 38.162L47.32 38.0821L47.4131 37.9681C47.4626 37.8958 47.5056 37.8195 47.5411 37.7398C47.5792 37.6706 47.6104 37.598 47.6343 37.523L52.3483 22.0496V21.9127C52.3541 21.8596 52.3541 21.806 52.3483 21.7529V21.6502C52.354 21.6162 52.354 21.5815 52.3483 21.5475C52.3536 21.4753 52.3536 21.4029 52.3483 21.3307H53.8615C53.9931 21.3425 54.1256 21.3425 54.2572 21.3307H54.362C54.4472 21.3058 54.5292 21.2713 54.6064 21.228H54.7228L54.9323 21.0682L55.0254 20.9998L55.1884 20.7943V20.7259L55.3048 20.5319C55.2983 20.4942 55.2983 20.4556 55.3048 20.4178C55.2986 20.3993 55.2986 20.3793 55.3048 20.3608C55.3295 20.2939 55.349 20.2252 55.363 20.1553C55.3576 20.1328 55.3576 20.1094 55.363 20.0869C55.3573 20.0529 55.3573 20.0182 55.363 19.9842C55.363 19.9842 55.5958 19.5391 55.5958 19.5163Z" fill="black"/>
<path d="M24.553 13.7196C24.6148 13.7744 24.658 13.8464 24.6767 13.926C24.6955 14.0055 24.6888 14.0888 24.6578 14.1646L19.5015 31.0986C19.4366 31.2835 19.3037 31.4381 19.129 31.5323C18.9869 31.6255 18.8223 31.6806 18.6518 31.692H2.26326C2.1233 31.6854 1.99071 31.6286 1.89079 31.5323C1.83135 31.4784 1.78963 31.4083 1.77097 31.3311C1.75231 31.2539 1.75757 31.173 1.78604 31.0986L6.95401 14.1646C7.01356 13.9774 7.14222 13.8187 7.31484 13.7196C7.45934 13.6331 7.6231 13.5821 7.79206 13.5712H24.1806C24.3194 13.5725 24.4526 13.6256 24.553 13.7196ZM15.9979 27.6867L19.0824 17.5765H10.4459L7.37302 27.6867H15.9979ZM40.1966 13.8907C40.2525 13.9544 40.3224 14.005 40.4011 14.0386C40.4797 14.0721 40.5649 14.0879 40.6506 14.0847H42.7806C42.8618 14.0855 42.9417 14.066 43.013 14.0281C43.0843 13.9901 43.1445 13.935 43.188 13.8679C43.2258 13.8155 43.2526 13.7562 43.2665 13.6934C43.2805 13.6307 43.2815 13.5659 43.2695 13.5028L42.8505 10.4903C42.8106 10.3508 42.7389 10.2221 42.641 10.1137C42.585 10.05 42.5152 9.99946 42.4366 9.96587C42.358 9.93229 42.2727 9.91651 42.187 9.9197H40.057C39.9759 9.91892 39.8959 9.93842 39.8246 9.97636C39.7533 10.0143 39.6931 10.0694 39.6496 10.1365C39.5681 10.2963 39.5332 10.399 39.5681 10.4903L39.9988 13.5028C40.0209 13.6495 40.0902 13.7854 40.1966 13.8907ZM46.9593 10.4674C46.9193 10.328 46.8477 10.1993 46.7497 10.0909C46.6962 10.0274 46.6283 9.97688 46.5517 9.94324C46.475 9.9096 46.3914 9.89373 46.3074 9.89687H44.1657C44.086 9.89465 44.0071 9.91362 43.9374 9.95179C43.8677 9.98996 43.8099 10.0459 43.77 10.1137C43.6926 10.2149 43.659 10.3421 43.6769 10.4674L44.1075 13.4799C44.1346 13.6251 44.2032 13.7597 44.3054 13.8679C44.3623 13.9304 44.4324 13.9801 44.5108 14.0135C44.5891 14.047 44.6739 14.0635 44.7593 14.0619H46.9011C46.9807 14.0629 47.059 14.0435 47.1285 14.0054C47.198 13.9673 47.256 13.9121 47.2968 13.8451C47.3373 13.7941 47.3656 13.7347 47.3797 13.6716C47.3938 13.6084 47.3933 13.5429 47.3783 13.4799L46.9593 10.4674ZM38.3227 15.0319L38.1131 13.5484H27.7889C27.6268 13.5572 27.4699 13.6084 27.3349 13.6968C27.2492 13.7426 27.1745 13.8061 27.1163 13.8829C27.0581 13.9598 27.0175 14.0481 26.9974 14.1418L26.136 16.9717C26.1017 17.0424 26.0899 17.1218 26.1023 17.1992C26.1149 17.2766 26.1509 17.3484 26.2059 17.4054C26.304 17.4958 26.4321 17.5485 26.5667 17.5537H39.1142L36.0297 27.6639H23.5171C23.3558 27.6675 23.1987 27.7149 23.0632 27.8008C22.8986 27.9033 22.7784 28.0618 22.7257 28.2459L21.8527 31.0758C21.8242 31.1484 21.8167 31.2273 21.8311 31.3038C21.8455 31.3804 21.8811 31.4515 21.9341 31.5094C22.0292 31.6059 22.1583 31.6631 22.295 31.6692H38.73C38.9 31.6548 39.0639 31.6 39.2072 31.5094C39.3791 31.4148 39.5081 31.2599 39.5681 31.0758L44.2937 15.6024H38.9745C38.8901 15.604 38.8063 15.5887 38.7282 15.5573C38.6501 15.5259 38.5795 15.4791 38.5206 15.4198C38.4243 15.3163 38.3563 15.1908 38.3227 15.0547V15.0319Z" fill="white"/>
</g>
<defs>
<clipPath id="clip0_211_823">
<rect width="55" height="30" fill="white" transform="translate(0.600098 8.84668)"/>
</clipPath>
</defs>
</svg>
