<svg width="156" height="24" viewBox="0 0 156 24" fill="none" xmlns="http://www.w3.org/2000/svg">
<path d="M19.5412 13.1341L14.1503 22.3669L8.75937 13.1341H19.5412ZM20.9854 12.3088H7.30933L14.1503 24L20.9854 12.3088Z" fill="#263238"/>
<path d="M28.914 1.65038L34.3049 10.8833H23.523L28.914 1.65038ZM28.914 0L22.073 11.6912H35.7549L28.914 0Z" fill="#263238"/>
<path d="M0.754883 0L6.49079 10.3409L12.7587 0.259661L0.754883 0Z" fill="#4CAF4F"/>
<path d="M14.1503 0.905762L20.1669 11.1889H8.12207L14.1503 0.905762Z" fill="#4CAF4F"/>
<path d="M21.7164 13.4341L27.7388 24H15.4075L21.5292 13.4341H21.7164Z" fill="#4CAF4F"/>
<path d="M23.0203 12.7935L28.914 23.1978L34.8896 12.7935H23.0203Z" fill="#4CAF4F"/>
<path d="M60.7876 1.66895V22.0326H57.0688L48.2094 9.21582H48.0603V22.0326H43.7549V1.66895H47.5333L56.3231 14.4758H56.502V1.66895H60.7876Z" fill="#263238"/>
<path d="M71.2254 22.3309C69.6544 22.3309 68.3021 22.0127 67.1686 21.3763C66.0417 20.7333 65.1733 19.8252 64.5635 18.6519C63.9536 17.472 63.6487 16.0766 63.6487 14.4658C63.6487 12.8948 63.9536 11.516 64.5635 10.3295C65.1733 9.1429 66.0318 8.21819 67.1388 7.55531C68.2524 6.89243 69.5583 6.56099 71.0564 6.56099C72.064 6.56099 73.0019 6.7234 73.8703 7.04821C74.7453 7.36639 75.5076 7.84698 76.1572 8.48997C76.8135 9.13296 77.3239 9.94167 77.6885 10.9161C78.0531 11.8839 78.2354 13.0174 78.2354 14.3167V15.48H65.339V12.855H74.2481C74.2481 12.2452 74.1156 11.7049 73.8504 11.2343C73.5853 10.7636 73.2174 10.3957 72.7467 10.1306C72.2827 9.85881 71.7425 9.72292 71.126 9.72292C70.483 9.72292 69.9129 9.87207 69.4158 10.1704C68.9252 10.462 68.5408 10.8564 68.2623 11.3536C67.9839 11.8441 67.8414 12.391 67.8348 12.9942V15.49C67.8348 16.2457 67.974 16.8986 68.2524 17.4488C68.5374 17.999 68.9385 18.4232 69.4555 18.7215C69.9726 19.0198 70.5857 19.1689 71.295 19.1689C71.7657 19.1689 72.1965 19.1027 72.5876 18.9701C72.9787 18.8375 73.3135 18.6386 73.5919 18.3735C73.8703 18.1083 74.0824 17.7835 74.2282 17.3991L78.1459 17.6576C77.947 18.5989 77.5393 19.4208 76.9229 20.1235C76.313 20.8195 75.5242 21.3631 74.5564 21.7542C73.5952 22.1386 72.4849 22.3309 71.2254 22.3309Z" fill="#263238"/>
<path d="M84.2659 6.75985L87.0699 12.0993L89.9434 6.75985H94.2886L89.8639 14.3962L94.4079 22.0326H90.0827L87.0699 16.7528L84.1068 22.0326H79.7318L84.2659 14.3962L79.8909 6.75985H84.2659Z" fill="#263238"/>
<path d="M103.158 22.3309C101.594 22.3309 100.248 21.9994 99.121 21.3366C98.0007 20.6671 97.139 19.739 96.5358 18.5525C95.9392 17.3659 95.6409 16.0004 95.6409 14.4559C95.6409 12.8915 95.9425 11.5193 96.5457 10.3394C97.1556 9.15285 98.0206 8.22813 99.1409 7.56525C100.261 6.89574 101.594 6.56099 103.138 6.56099C104.47 6.56099 105.637 6.80294 106.638 7.28684C107.639 7.77074 108.431 8.4502 109.014 9.3252C109.598 10.2002 109.919 11.2277 109.979 12.4076H105.982C105.869 11.6453 105.571 11.0321 105.087 10.5681C104.61 10.0974 103.983 9.86213 103.208 9.86213C102.551 9.86213 101.978 10.0411 101.487 10.3991C101.004 10.7504 100.626 11.2641 100.354 11.9403C100.082 12.6164 99.9463 13.435 99.9463 14.3962C99.9463 15.3707 100.079 16.1992 100.344 16.882C100.616 17.5648 100.997 18.0851 101.487 18.4431C101.978 18.801 102.551 18.98 103.208 18.98C103.692 18.98 104.126 18.8806 104.51 18.6817C104.901 18.4829 105.223 18.1945 105.475 17.8167C105.733 17.4322 105.902 16.9715 105.982 16.4346H109.979C109.913 17.6012 109.594 18.6287 109.024 19.517C108.461 20.3986 107.682 21.088 106.688 21.5851C105.693 22.0823 104.517 22.3309 103.158 22.3309Z" fill="#263238"/>
<path d="M119.651 22.3309C118.08 22.3309 116.728 22.0127 115.594 21.3763C114.467 20.7333 113.599 19.8252 112.989 18.6519C112.379 17.472 112.074 16.0766 112.074 14.4658C112.074 12.8948 112.379 11.516 112.989 10.3295C113.599 9.1429 114.458 8.21819 115.565 7.55531C116.678 6.89243 117.984 6.56099 119.482 6.56099C120.49 6.56099 121.428 6.7234 122.296 7.04821C123.171 7.36639 123.933 7.84698 124.583 8.48997C125.239 9.13296 125.75 9.94167 126.114 10.9161C126.479 11.8839 126.661 13.0174 126.661 14.3167V15.48H113.765V12.855H122.674C122.674 12.2452 122.541 11.7049 122.276 11.2343C122.011 10.7636 121.643 10.3957 121.172 10.1306C120.708 9.85881 120.168 9.72292 119.552 9.72292C118.909 9.72292 118.339 9.87207 117.842 10.1704C117.351 10.462 116.967 10.8564 116.688 11.3536C116.41 11.8441 116.267 12.391 116.261 12.9942V15.49C116.261 16.2457 116.4 16.8986 116.678 17.4488C116.963 17.999 117.364 18.4232 117.881 18.7215C118.398 19.0198 119.012 19.1689 119.721 19.1689C120.191 19.1689 120.622 19.1027 121.013 18.9701C121.405 18.8375 121.739 18.6386 122.018 18.3735C122.296 18.1083 122.508 17.7835 122.654 17.3991L126.572 17.6576C126.373 18.5989 125.965 19.4208 125.349 20.1235C124.739 20.8195 123.95 21.3631 122.982 21.7542C122.021 22.1386 120.911 22.3309 119.651 22.3309Z" fill="#263238"/>
<path d="M133.661 13.203V22.0326H129.425V6.75985H133.462V9.45446H133.641C133.979 8.5662 134.546 7.86355 135.342 7.3465C136.137 6.82283 137.101 6.56099 138.235 6.56099C139.296 6.56099 140.22 6.793 141.009 7.25701C141.798 7.72103 142.411 8.38391 142.849 9.24565C143.286 10.1008 143.505 11.1216 143.505 12.3082V22.0326H139.269V13.0638C139.276 12.1292 139.037 11.4 138.553 10.8763C138.069 10.346 137.403 10.0809 136.555 10.0809C135.985 10.0809 135.481 10.2035 135.043 10.4488C134.612 10.694 134.274 11.052 134.029 11.5226C133.79 11.9867 133.668 12.5468 133.661 13.203Z" fill="#263238"/>
<path d="M154.967 6.75985V9.94167H145.769V6.75985H154.967ZM147.858 3.10076H152.093V17.3394C152.093 17.7305 152.153 18.0354 152.272 18.2542C152.392 18.4663 152.557 18.6154 152.769 18.7016C152.988 18.7878 153.24 18.8309 153.525 18.8309C153.724 18.8309 153.923 18.8143 154.122 18.7812C154.321 18.7414 154.473 18.7116 154.579 18.6917L155.245 21.8437C155.033 21.91 154.735 21.9862 154.35 22.0724C153.966 22.1652 153.499 22.2215 152.948 22.2414C151.928 22.2812 151.033 22.1453 150.264 21.8337C149.501 21.5222 148.908 21.0383 148.484 20.382C148.06 19.7258 147.851 18.8972 147.858 17.8962V3.10076Z" fill="#263238"/>
</svg>
